<?xml version="1.0" encoding="iso-8859-1"?>
<!-- Uploaded to: SVG Repo, www.svgrepo.com, Generator: SVG Repo Mixer Tools -->
<!DOCTYPE svg PUBLIC "-//W3C//DTD SVG 1.1//EN" "http://www.w3.org/Graphics/SVG/1.1/DTD/svg11.dtd">
<svg fill="#000000" height="800px" width="800px" version="1.1" id="Capa_1" xmlns="http://www.w3.org/2000/svg" xmlns:xlink="http://www.w3.org/1999/xlink" 
	 viewBox="0 0 455 455" xml:space="preserve">
<g>
	<path d="M132.465,123.968c-5.805,0-10.528,4.723-10.528,10.527c0,5.806,4.723,10.528,10.528,10.528
		c5.805,0,10.528-4.723,10.528-10.528C142.993,128.69,138.27,123.968,132.465,123.968z"/>
	<path d="M92.465,153.968c-5.805,0-10.528,4.723-10.528,10.527c0,5.806,4.723,10.528,10.528,10.528
		c5.805,0,10.528-4.723,10.528-10.528C102.993,158.69,98.27,153.968,92.465,153.968z"/>
	<path d="M418.637,91.522c-22.735-24.634-52.587-38.762-81.901-38.762c-25.439,0-40.378,7.646-54.825,15.04
		c-14.51,7.427-28.215,14.441-54.411,14.441c-26.196,0-39.901-7.015-54.411-14.441c-14.447-7.394-29.386-15.04-54.825-15.04
		c-29.314,0-59.166,14.128-81.901,38.762C12.914,116.931,0,149.773,0,183.999v87.002c0,34.227,12.914,67.068,36.363,92.477
		c22.735,24.634,52.587,38.762,81.901,38.762c25.439,0,40.378-7.646,54.825-15.04c14.51-7.427,28.215-14.441,54.411-14.441
		c26.196,0,39.901,7.015,54.411,14.441c14.447,7.394,29.386,15.04,54.825,15.04c29.314,0,59.166-14.128,81.901-38.762
		C442.086,338.069,455,305.228,455,271.001v-87.002C455,149.773,442.086,116.931,418.637,91.522z M435,271.001
		c0,63.666-51.879,111.238-98.264,111.238c-20.618,0-32.247-5.952-45.713-12.844c-15.236-7.799-32.506-16.638-63.523-16.638
		s-48.287,8.839-63.523,16.638c-13.465,6.892-25.095,12.844-45.713,12.844C71.879,382.239,20,334.667,20,271.001V254.83
		c4.689,7.661,10.152,14.916,16.363,21.646c22.735,24.634,52.587,38.762,81.901,38.762c19.592,0,32.738-4.697,42.001-8.79
		c5.052-2.232,7.337-8.137,5.105-13.189c-2.232-5.054-8.136-7.338-13.188-5.106c-7.929,3.504-18.16,7.085-33.918,7.085
		C71.879,295.237,20,247.665,20,183.999S71.879,72.761,118.264,72.761c20.618,0,32.248,5.952,45.713,12.844
		c15.236,7.799,32.506,16.638,63.523,16.638s48.287-8.839,63.523-16.638c13.465-6.892,25.095-12.844,45.713-12.844
		c46.385,0,98.264,47.572,98.264,111.238s-51.879,111.238-98.264,111.238c-20.618,0-32.247-5.952-45.713-12.844
		c-15.236-7.799-32.506-16.638-63.523-16.638c-24.033,0-39.309,5.361-49.932,10.032c-5.056,2.223-7.352,8.124-5.129,13.18
		c2.223,5.056,8.122,7.35,13.179,5.129c9.38-4.124,21.691-8.341,41.882-8.341c26.196,0,39.901,7.015,54.411,14.441
		c14.447,7.393,29.386,15.04,54.825,15.04c29.314,0,59.166-14.128,81.901-38.762c6.211-6.73,11.675-13.985,16.363-21.646V271.001z"
		/>
	<path d="M370.713,333.333c-5.805,0-10.528,4.723-10.528,10.527c0,5.806,4.723,10.528,10.528,10.528
		c5.805,0,10.527-4.723,10.527-10.528C381.24,338.056,376.518,333.333,370.713,333.333z"/>
</g>
</svg>