<?xml version="1.0" encoding="iso-8859-1"?>
<!-- Uploaded to: SVG Repo, www.svgrepo.com, Generator: SVG Repo Mixer Tools -->
<svg fill="#000000" height="800px" width="800px" version="1.1" id="Layer_1" xmlns="http://www.w3.org/2000/svg" xmlns:xlink="http://www.w3.org/1999/xlink" 
	 viewBox="0 0 512.003 512.003" xml:space="preserve">
<g>
	<g>
		<path d="M423.862,129.522c24.661-19.422,19.814-60.365,19.567-62.327c-0.333-2.628-1.869-4.949-4.156-6.289
			c-2.287-1.348-5.06-1.527-7.518-0.546c-35.464,14.387-58.027,6.443-65.707,2.62c-1.86-19.678,8.294-42.103,8.405-42.342
			c1.203-2.645,0.99-5.726-0.58-8.166c-1.562-2.449-4.267-3.934-7.177-3.934c-33.434,0-71.91,28.109-80.469,34.697
			c-0.205-0.017-0.273-0.068-0.324-0.111c-4.113-3.345-5.709-20.531-4.574-33.852c0.205-2.364-0.589-4.719-2.193-6.477
			c-1.596-1.758-3.857-2.773-6.238-2.79c-1.954-0.06-36.446,0.35-63.633,48.734c-9.591-4.745-28.518-15.821-49.792-37.623
			c-1.971-2.014-4.787-2.918-7.578-2.449c-2.773,0.478-5.129,2.304-6.298,4.873c-0.691,1.51-13.619,30.49-7.569,57.549
			c-19.072-4.693-48.299-6.519-68.036,17.34c-2.099,2.534-2.551,6.033-1.178,9.02c0.503,1.092,10.812,22.895,34.227,34.014
			c-15.394,18.29-35.625,61.727,7.662,143.738c0.077,57.91,5.989,116.752,47.245,155.914c6.621,6.285,13.737,11.913,21.014,17.198
			v55.161c0,4.719,3.823,8.533,8.533,8.533s8.533-3.814,8.533-8.533v-43.363c0.96,0.643,1.923,1.289,2.879,1.929l8.183,5.504
			c3.234,2.185,6.391,4.523,9.549,6.852c13.662,10.104,27.784,20.548,47.659,20.548c19.866,0,33.988-10.445,47.659-20.548
			c3.149-2.33,6.306-4.668,9.54-6.852l8.183-5.504c0.957-0.64,1.92-1.287,2.881-1.93v43.364c0,4.719,3.823,8.533,8.533,8.533
			c4.71,0,8.533-3.814,8.533-8.533v-55.162c7.277-5.284,14.392-10.912,21.013-17.197c41.342-39.246,47.372-98.234,47.483-156.373
			C462.693,189.987,439.32,146.547,423.862,129.522z M123.736,135.256c2.961-1.843,4.497-5.299,3.9-8.721
			c-0.597-3.422-3.217-6.153-6.622-6.878c-18.057-3.874-29.056-17.212-33.86-24.516c23.159-20.489,62.114-2.304,62.524-2.116
			c3.516,1.698,7.714,0.768,10.214-2.193c2.5-2.978,2.68-7.27,0.427-10.436c-10.232-14.413-6.955-35.038-3.319-47.906
			c28.928,26.581,52.198,34.918,53.282,35.302c4.053,1.408,8.533-0.41,10.462-4.258c15.078-30.319,32.725-40.858,43.119-44.51
			c0.017,12.339,1.877,29.696,11.273,37.333c4.745,3.866,10.863,4.932,17.212,3.021c1.058-0.316,2.048-0.845,2.901-1.536
			c0.35-0.273,30.43-24.26,58.641-30.677c-3.43,11.153-6.878,27.477-4.122,42.633c0.401,2.176,1.621,4.113,3.422,5.41
			c1.195,0.845,27.768,19.354,73.651,5.035c-0.393,12.894-3.763,33.382-20.523,39.782c-3.029,1.161-5.137,3.934-5.453,7.159
			c-0.307,3.226,1.237,6.349,3.994,8.064c0.445,0.282,38.37,25.061,13.274,97.249v-36.223c0-8.055-1.579-15.881-4.693-23.27
			c-11.213-26.539-42.624-39.125-71.467-28.706c-11.733,4.25-34.688,9.31-77.44,9.31s-65.715-5.06-77.449-9.31
			c-28.86-10.462-60.245,2.167-71.458,28.706c-3.115,7.364-4.693,15.189-4.693,23.245l-0.111,37.397
			C85.1,161.444,121.975,136.393,123.736,135.256z M358.893,418.729c-6.617,6.285-13.973,11.981-21.547,17.385
			c-0.857,0.421-1.638,0.974-2.304,1.644c-4.918,3.452-9.909,6.791-14.84,10.087l-8.277,5.555c-3.43,2.33-6.776,4.804-10.112,7.27
			c-11.972,8.841-23.27,17.203-37.513,17.203c-14.251,0-25.549-8.363-37.513-17.203c-3.345-2.466-6.69-4.941-10.112-7.27
			l-8.286-5.555c-13.338-8.917-27.119-18.133-38.69-29.116c-38.699-36.727-41.933-93.943-41.933-144.666l0.23-77.79
			c0-5.777,1.126-11.366,3.345-16.631c5.811-13.739,19.772-21.939,35.021-21.939c4.915,0,9.958,0.853,14.916,2.645
			c13.013,4.702,38.025,10.325,83.251,10.325c45.218,0,70.229-5.623,83.251-10.325c20.301-7.347,42.249,1.118,49.929,19.294
			c2.227,5.265,3.354,10.863,3.354,16.631v76.306c0,0.057-0.001,0.113,0,0.169v0.324
			C401.065,327.935,395.953,383.555,358.893,418.729z"/>
	</g>
</g>
</svg>