<?xml version="1.0" ?><!-- Uploaded to: SVG Repo, www.svgrepo.com, Generator: SVG Repo Mixer Tools -->
<svg width="800px" height="800px" viewBox="0 0 32 32" data-name="Layer 1" id="Layer_1" xmlns="http://www.w3.org/2000/svg"><defs><style>.cls-1,.cls-2,.cls-3{fill:none;stroke:#231f20;}.cls-1{stroke-miterlimit:10;}.cls-2{stroke-linecap:round;}.cls-2,.cls-3{stroke-linejoin:round;}.cls-3{stroke-width:2px;}</style></defs><title/><path class="cls-1" d="M15.49,13.5h1a5,5,0,0,1,5,5v7a3,3,0,0,1-3,3h-5a3,3,0,0,1-3-3v-7A5,5,0,0,1,15.49,13.5Z"/><rect class="cls-2" height="3" width="5" x="13.5" y="10.5"/><rect class="cls-2" height="3" width="3" x="14.5" y="7.5"/><path class="cls-2" d="M14.5,3.5h5a0,0,0,0,1,0,0v1a1,1,0,0,1-1,1h-4a0,0,0,0,1,0,0v-2A0,0,0,0,1,14.5,3.5Z"/><line class="cls-3" x1="16" x2="16" y1="6" y2="7"/></svg>