<?xml version="1.0" encoding="UTF-8" standalone="no"?>
<!-- Created with Inkscape (http://www.inkscape.org/) -->

<svg
   xmlns:dc="http://purl.org/dc/elements/1.1/"
   xmlns:cc="http://creativecommons.org/ns#"
   xmlns:rdf="http://www.w3.org/1999/02/22-rdf-syntax-ns#"
   xmlns:svg="http://www.w3.org/2000/svg"
   xmlns="http://www.w3.org/2000/svg"
   xmlns:sodipodi="http://sodipodi.sourceforge.net/DTD/sodipodi-0.dtd"
   xmlns:inkscape="http://www.inkscape.org/namespaces/inkscape"
   version="1.1"
   id="svg3167"
   xml:space="preserve"
   width="800"
   height="800"
   viewBox="0 0 800 800"
   sodipodi:docname="comb-and-scissors-publicdomainvectors.org.svg"
   inkscape:version="0.92.4 (5da689c313, 2019-01-14)"><metadata
     id="metadata3173"><rdf:RDF><cc:Work
         rdf:about=""><dc:format>image/svg+xml</dc:format><dc:type
           rdf:resource="http://purl.org/dc/dcmitype/StillImage" /><dc:title></dc:title></cc:Work></rdf:RDF></metadata><defs
     id="defs3171"><clipPath
       clipPathUnits="userSpaceOnUse"
       id="clipPath3183"><path
         d="M 0,600 H 600 V 0 H 0 Z"
         id="path3181"
         inkscape:connector-curvature="0" /></clipPath></defs><sodipodi:namedview
     pagecolor="#ffffff"
     bordercolor="#666666"
     borderopacity="1"
     objecttolerance="10"
     gridtolerance="10"
     guidetolerance="10"
     inkscape:pageopacity="0"
     inkscape:pageshadow="2"
     inkscape:window-width="1920"
     inkscape:window-height="1018"
     id="namedview3169"
     showgrid="false"
     inkscape:zoom="0.90744565"
     inkscape:cx="406.77966"
     inkscape:cy="403.38983"
     inkscape:window-x="-8"
     inkscape:window-y="-8"
     inkscape:window-maximized="1"
     inkscape:current-layer="g3175" /><g
     id="g3175"
     inkscape:groupmode="layer"
     inkscape:label="comb-and-scissors-publicdomainvectors.org"
     transform="matrix(1.3333333,0,0,-1.3333333,0,800)"><g
       id="g3177"><g
         id="g3179"
         clip-path="url(#clipPath3183)"><path
           d="m 450.788,157.711 c 9.495,-11.242 -21.258,-40.254 -38.105,-44.121 -3.745,-0.858 -6.806,-0.483 -8.581,1.613 -24.139,48.276 -53.638,95.34 -88.714,141.201 -41.599,-42.308 -90.007,-91.564 -97.829,-99.613 -14.112,-14.518 -46.08,-33.152 -64.356,-31.775 l 135.291,165 c -0.974,1.164 -1.953,2.326 -2.933,3.488 L 156.346,134.727 c -1.43,10.064 17.684,40.39 37.293,63.125 8.502,9.857 54.924,65.898 86.261,101.14 -6.194,3.496 -12.17,5.206 -17.82,5.647 -22.81,1.786 -40.285,-17.057 -45.291,-22.241 -0.611,-0.632 -1.04,-1.066 -1.268,-1.228 -3.214,-2.315 -6.041,1.461 -5.083,3.56 l 3.992,3.633 41.687,37.958 -2.752,3.022 -42.222,-38.441 -2.45,-2.232 c -0.927,-0.844 -2.364,-0.775 -3.209,0.15 -0.843,0.928 -0.777,2.366 0.151,3.209 l 2.982,2.715 41.69,37.959 -2.752,3.022 -42.222,-38.442 -2.45,-2.23 c -0.928,-0.846 -2.365,-0.778 -3.209,0.15 -0.844,0.928 -0.778,2.363 0.151,3.207 l 2.32,2.113 42.351,38.56 -2.445,2.688 -42.221,-38.44 -2.452,-2.233 c -0.927,-0.845 -2.362,-0.777 -3.208,0.151 -0.845,0.927 -0.777,2.364 0.15,3.209 l 2.981,2.713 41.691,37.958 -2.753,3.023 -42.219,-38.441 -2.452,-2.23 c -0.927,-0.846 -2.364,-0.778 -3.209,0.15 -0.843,0.926 -0.776,2.364 0.151,3.207 l 2.983,2.717 41.689,37.956 -2.752,3.024 -42.221,-38.442 -2.451,-2.231 c -0.928,-0.845 -2.365,-0.778 -3.207,0.15 -0.846,0.928 -0.78,2.363 0.149,3.208 l 2.32,2.113 42.351,38.56 -2.445,2.688 -42.221,-38.441 -2.452,-2.232 c -0.928,-0.845 -2.362,-0.778 -3.208,0.15 -0.844,0.928 -0.777,2.363 0.15,3.208 l 2.983,2.716 41.689,37.956 -2.752,3.023 -42.22,-38.441 -2.452,-2.23 c -0.927,-0.845 -2.364,-0.778 -3.209,0.15 -0.843,0.928 -0.777,2.363 0.151,3.209 l 2.982,2.715 41.69,37.956 -2.752,3.023 -42.221,-38.441 -2.451,-2.231 c -0.928,-0.844 -2.365,-0.777 -3.209,0.151 -0.844,0.928 -0.778,2.364 0.151,3.207 l 2.32,2.113 42.351,38.56 -2.445,2.687 -42.222,-38.44 -2.451,-2.233 c -0.927,-0.843 -2.362,-0.777 -3.208,0.152 -0.844,0.926 -0.777,2.363 0.15,3.208 l 2.983,2.716 41.689,37.956 -2.753,3.023 -42.219,-38.44 -2.452,-2.232 c -0.927,-0.846 -2.364,-0.778 -3.209,0.151 -0.843,0.926 -0.777,2.362 0.151,3.208 l 2.983,2.714 41.689,37.957 -2.752,3.023 -42.221,-38.44 -2.451,-2.232 c -0.928,-0.845 -2.363,-0.776 -3.209,0.15 -0.844,0.929 -0.778,2.365 0.151,3.208 l 2.32,2.113 42.351,38.559 -2.445,2.687 -42.221,-38.44 -2.452,-2.232 c -0.927,-0.843 -2.364,-0.775 -3.208,0.151 -0.844,0.928 -0.777,2.365 0.15,3.208 l 2.983,2.717 41.689,37.956 -2.753,3.023 -42.219,-38.441 -2.452,-2.231 c -0.927,-0.845 -2.364,-0.778 -3.209,0.151 -0.843,0.926 -0.777,2.362 0.151,3.208 l 2.982,2.714 41.69,37.957 -2.752,3.023 -42.221,-38.44 -2.451,-2.231 c -0.928,-0.846 -2.365,-0.777 -3.209,0.149 -0.844,0.929 -0.778,2.364 0.151,3.209 l 2.318,2.111 42.353,38.561 -2.445,2.686 -42.222,-38.44 -2.451,-2.231 c -0.927,-0.844 -2.362,-0.776 -3.208,0.15 -0.845,0.929 -0.777,2.365 0.15,3.208 l 2.983,2.717 41.689,37.956 -2.752,3.023 -42.22,-38.44 -2.452,-2.233 c -0.927,-0.843 -2.364,-0.777 -3.209,0.152 -0.843,0.926 -0.777,2.363 0.151,3.208 l 2.983,2.716 41.689,37.956 -2.752,3.023 -42.221,-38.44 -2.451,-2.232 c -0.928,-0.846 -2.365,-0.778 -3.207,0.151 -0.846,0.926 -0.78,2.362 0.149,3.208 l 2.32,2.11 42.351,38.561 -2.445,2.686 -42.222,-38.44 -2.451,-2.23 c -0.927,-0.846 -2.364,-0.777 -3.208,0.149 -0.844,0.929 -0.777,2.365 0.15,3.208 l 2.983,2.716 41.689,37.956 -2.752,3.023 -42.22,-38.44 -2.452,-2.232 c -0.927,-0.843 -2.364,-0.775 -3.209,0.151 -0.843,0.928 -0.777,2.365 0.151,3.208 l 2.981,2.716 41.691,37.957 -2.752,3.023 -42.222,-38.441 -2.45,-2.231 c -0.928,-0.845 -2.365,-0.778 -3.209,0.15 -0.844,0.927 -0.778,2.363 0.151,3.209 l 2.32,2.11 42.351,38.561 -2.445,2.687 -42.222,-38.44 -2.451,-2.231 c -0.927,-0.846 -2.362,-0.778 -3.208,0.15 -0.844,0.928 -0.777,2.363 0.15,3.209 l 2.983,2.714 41.689,37.956 -2.752,3.023 -42.22,-38.44 -2.452,-2.231 c -0.927,-0.844 -2.364,-0.777 -3.209,0.15 -0.843,0.928 -0.777,2.365 0.151,3.208 l 2.982,2.717 41.69,37.956 -2.752,3.023 -42.222,-38.44 -2.45,-2.233 c -0.928,-0.843 -2.365,-0.777 -3.209,0.152 -0.844,0.926 -0.778,2.363 0.151,3.208 l 2.32,2.112 42.351,38.56 -2.445,2.687 -42.222,-38.44 -2.451,-2.232 c -0.927,-0.845 -2.364,-0.778 -3.208,0.15 -0.845,0.927 -0.777,2.363 0.15,3.209 l 2.983,2.714 41.689,37.957 -2.752,3.022 -42.22,-38.439 -2.452,-2.231 c -0.927,-0.846 -2.364,-0.778 -3.209,0.149 -0.843,0.928 -0.777,2.365 0.151,3.208 l 2.982,2.715 41.69,37.957 -2.752,3.023 -42.221,-38.44 -2.451,-2.232 c -0.928,-0.843 -2.365,-0.776 -3.209,0.151 -0.844,0.928 -0.778,2.364 0.151,3.208 l 2.32,2.113 42.351,38.56 -2.445,2.687 -42.221,-38.441 -2.452,-2.232 c -0.927,-0.843 -2.364,-0.777 -3.208,0.151 -0.844,0.927 -0.777,2.363 0.15,3.209 l 2.983,2.715 41.689,37.957 -2.752,3.022 -42.22,-38.439 -2.452,-2.232 c -0.927,-0.846 -2.364,-0.778 -3.209,0.15 -0.843,0.926 -0.777,2.363 0.151,3.209 l 24.242,22.07 20.43,18.6 -1.111,1.221 -46.121,-35.851 -1.721,-1.338 c -1.113,-1.014 -2.836,-0.932 -3.85,0.179 -1.014,1.114 -0.933,2.838 0.18,3.85 l 55.755,50.765 c 0.194,0.174 0.38,0.344 0.557,0.505 0,0.001 0.001,0.002 0.002,0.002 l 6.411,4.683 c 2.347,2.135 5.666,2.48 7.861,1.159 0.383,-0.233 0.738,-0.51 1.041,-0.843 C 236.928,410.959 347.521,287.121 450.788,157.711 M 313.54,327.885 c -1.593,1.784 -3.186,3.569 -4.784,5.35 9.068,11.184 18.952,23 28.965,32.618 l 7.125,0.5 z m 234.576,73.992 c -15.079,-20.896 -39.9,-28.745 -55.439,-17.532 -15.537,11.216 -15.908,37.244 -0.828,58.14 15.08,20.897 39.901,28.746 55.44,17.533 15.538,-11.215 15.909,-37.245 0.827,-58.141 M 335.545,337.076 c 0.98,1.984 2.461,3.754 4.425,5.084 6.043,4.094 14.261,2.515 18.356,-3.528 1.331,-1.963 2.052,-4.154 2.227,-6.36 z m 19.256,-16.801 c -6.043,-4.095 -14.262,-2.517 -18.358,3.526 -1.652,2.441 -2.365,5.233 -2.25,7.966 l 25.649,-4.927 c -0.906,-2.581 -2.603,-4.912 -5.041,-6.565 m 44.996,154.989 c -10.75,15.862 -2.172,40.441 19.162,54.898 21.331,14.457 47.339,13.317 58.089,-2.545 10.75,-15.864 2.172,-40.442 -19.161,-54.899 -21.332,-14.457 -47.34,-13.318 -58.09,2.546 m 158.022,-0.505 c -23.192,16.739 -58.966,6.789 -79.902,-22.219 -2.063,-2.86 -3.896,-5.799 -5.519,-8.789 -20.514,-26.518 -44.258,-49.226 -77.814,-65.125 -0.985,-4.85 -8.738,-23.023 -11.996,-30.45 l -2.914,1.701 0.22,3.646 c 13.726,39.854 37.456,68.111 77.535,99.251 3.413,1.661 6.776,3.58 10.046,5.795 29.616,20.071 40.616,55.535 24.57,79.21 -16.046,23.678 -53.061,26.6 -82.676,6.531 -29.614,-20.071 -40.614,-55.535 -24.569,-79.21 7.187,-10.606 18.587,-17.032 31.639,-19.111 -0.048,-0.02 -0.084,-0.033 -0.084,-0.033 L 316.672,324.382 c 10.396,-11.671 20.713,-23.401 30.952,-35.193 17.878,18.18 30.249,30.757 30.249,30.757 l 1.005,16.7 84.948,65.341 c 1.673,-13.145 7.765,-24.764 18.177,-32.28 23.192,-16.738 58.967,-6.789 79.901,22.219 20.937,29.011 19.106,66.095 -4.085,82.833"
           style="fill:#231f20;fill-opacity:1;fill-rule:nonzero;stroke:none"
           id="path3185"
           inkscape:connector-curvature="0" /></g></g></g></svg>